<svg width="512" height="512" viewBox="0 0 512 512" fill="none" xmlns="http://www.w3.org/2000/svg">
<rect width="512" height="512" rx="120" fill="#6200B3"/>
<path d="M141.061 237.032H90.8916L115.976 216.274L141.061 237.032Z" fill="#B07DD5"/>
<path d="M141.061 237.032H90.8916L115.976 216.274L141.061 237.032Z" fill="white" fill-opacity="0.15"/>
<path d="M141.061 237.032H90.8916L115.976 216.274L141.061 237.032Z" stroke="#B07DD5" stroke-width="1.53"/>
<path d="M141.061 237.032H90.8916L115.976 216.274L141.061 237.032Z" stroke="white" stroke-opacity="0.3" stroke-width="1.53"/>
<path d="M421.885 237.024H371.716L396.8 216.266L421.885 237.024Z" fill="#B07DD5"/>
<path d="M421.885 237.024H371.716L396.8 216.266L421.885 237.024Z" fill="white" fill-opacity="0.15"/>
<path d="M421.885 237.024H371.716L396.8 216.266L421.885 237.024Z" stroke="#B07DD5" stroke-width="1.53"/>
<path d="M421.885 237.024H371.716L396.8 216.266L421.885 237.024Z" stroke="white" stroke-opacity="0.3" stroke-width="1.53"/>
<mask id="path-4-inside-1_28_6" fill="white">
<path d="M396.8 237.77H115.976V215.273H396.8V237.77Z"/>
</mask>
<path d="M396.8 237.77H115.976V215.273H396.8V237.77Z" fill="#B07DD5"/>
<path d="M396.8 237.77H115.976V215.273H396.8V237.77Z" fill="white" fill-opacity="0.15"/>
<path d="M396.8 237.77V236.24H115.976V237.77V239.3H396.8V237.77ZM115.976 215.273V217.273H396.8V215.273V213.273H115.976V215.273Z" fill="#B07DD5" mask="url(#path-4-inside-1_28_6)"/>
<path d="M396.8 237.77V236.24H115.976V237.77V239.3H396.8V237.77ZM115.976 215.273V217.273H396.8V215.273V213.273H115.976V215.273Z" fill="white" fill-opacity="0.3" mask="url(#path-4-inside-1_28_6)"/>
<path d="M352.194 222.255L358.912 228.073H345.476L352.194 222.255Z" fill="#1C2321"/>
<path d="M162.133 222.255L168.852 228.073H155.415L162.133 222.255Z" fill="#1C2321"/>
<path d="M352.194 228.073H162.133V222.255H352.194V228.073Z" fill="#1C2321"/>
<path d="M285.834 45.7698L391.684 149.749L257.123 286.731L151.273 182.752L285.834 45.7698Z" fill="#D9D9D9"/>
<mask id="path-10-inside-2_28_6" fill="white">
<path d="M359.176 237.77H155.152V228.073H359.176V237.77Z"/>
</mask>
<path d="M359.176 237.77H155.152V228.073H359.176V237.77Z" fill="#B07DD5"/>
<path d="M359.176 237.77H155.152V228.073H359.176V237.77Z" fill="white" fill-opacity="0.15"/>
<path d="M359.176 237.77V236.24H155.152V237.77V239.3H359.176V237.77Z" fill="#B07DD5" mask="url(#path-10-inside-2_28_6)"/>
<path d="M359.176 237.77V236.24H155.152V237.77V239.3H359.176V237.77Z" fill="white" fill-opacity="0.3" mask="url(#path-10-inside-2_28_6)"/>
<rect x="423.564" y="264.146" width="334.352" height="26.3758" transform="rotate(180 423.564 264.146)" fill="#B07DD5"/>
<path d="M100.848 264.146H411.152V443.085C411.152 451.369 404.436 458.085 396.152 458.085H115.849C107.564 458.085 100.848 451.369 100.848 443.085V264.146Z" fill="#B07DD5"/>
<rect x="100.848" y="264.146" width="310.303" height="6.20606" fill="#8D64AA"/>
</svg>
