<svg width="660" height="660" viewBox="0 0 660 660" fill="none" xmlns="http://www.w3.org/2000/svg">
<rect width="660" height="660" rx="120" fill="#6200B3"/>
<path d="M182.449 305.77H116.551L149.5 278.502L182.449 305.77Z" fill="#B07DD5"/>
<path d="M182.449 305.77H116.551L149.5 278.502L182.449 305.77Z" fill="white" fill-opacity="0.15"/>
<path d="M182.449 305.77H116.551L149.5 278.502L182.449 305.77Z" stroke="#B07DD5" stroke-width="1.53"/>
<path d="M182.449 305.77H116.551L149.5 278.502L182.449 305.77Z" stroke="white" stroke-opacity="0.3" stroke-width="1.53"/>
<path d="M544.449 305.76H478.551L511.5 278.492L544.449 305.76Z" fill="#B07DD5"/>
<path d="M544.449 305.76H478.551L511.5 278.492L544.449 305.76Z" fill="white" fill-opacity="0.15"/>
<path d="M544.449 305.76H478.551L511.5 278.492L544.449 305.76Z" stroke="#B07DD5" stroke-width="1.53"/>
<path d="M544.449 305.76H478.551L511.5 278.492L544.449 305.76Z" stroke="white" stroke-opacity="0.3" stroke-width="1.53"/>
<mask id="path-4-inside-1_20_1456" fill="white">
<path d="M511.5 306.5H149.5V277.5H511.5V306.5Z"/>
</mask>
<path d="M511.5 306.5H149.5V277.5H511.5V306.5Z" fill="#B07DD5"/>
<path d="M511.5 306.5H149.5V277.5H511.5V306.5Z" fill="white" fill-opacity="0.15"/>
<path d="M511.5 306.5V304.97H149.5V306.5V308.03H511.5V306.5ZM149.5 277.5V279.5H511.5V277.5V275.5H149.5V277.5Z" fill="#B07DD5" mask="url(#path-4-inside-1_20_1456)"/>
<path d="M511.5 306.5V304.97H149.5V306.5V308.03H511.5V306.5ZM149.5 277.5V279.5H511.5V277.5V275.5H149.5V277.5Z" fill="white" fill-opacity="0.3" mask="url(#path-4-inside-1_20_1456)"/>
<path d="M454 286.5L462.66 294H445.34L454 286.5Z" fill="#1C2321"/>
<path d="M209 286.5L217.66 294H200.34L209 286.5Z" fill="#1C2321"/>
<path d="M454 294H209V286.5H454V294Z" fill="#1C2321"/>
<path d="M368.457 59L504.905 193.035L331.447 369.614L195 235.579L368.457 59Z" fill="#D9D9D9"/>
<mask id="path-10-inside-2_20_1456" fill="white">
<path d="M463 306.5H200V294H463V306.5Z"/>
</mask>
<path d="M463 306.5H200V294H463V306.5Z" fill="#B07DD5"/>
<path d="M463 306.5H200V294H463V306.5Z" fill="white" fill-opacity="0.15"/>
<path d="M463 306.5V304.97H200V306.5V308.03H463V306.5Z" fill="#B07DD5" mask="url(#path-10-inside-2_20_1456)"/>
<path d="M463 306.5V304.97H200V306.5V308.03H463V306.5Z" fill="white" fill-opacity="0.3" mask="url(#path-10-inside-2_20_1456)"/>
<rect x="546" y="340.5" width="431" height="34" transform="rotate(180 546 340.5)" fill="#B07DD5"/>
<path d="M130 340.5H530V575.5C530 583.784 523.284 590.5 515 590.5H145C136.716 590.5 130 583.784 130 575.5V340.5Z" fill="#B07DD5"/>
<path d="M424.182 368.26V373.86C420.448 375.167 416.342 378.153 411.862 382.82C407.382 387.3 403.368 394.393 399.822 404.1L338.502 567.34C337.382 567.34 336.168 567.247 334.862 567.06C333.742 567.06 332.528 567.06 331.222 567.06C329.915 567.06 328.608 567.06 327.302 567.06C326.182 567.247 325.062 567.34 323.942 567.34L253.662 391.78C250.862 384.873 247.782 380.207 244.422 377.78C241.248 375.353 238.262 374.047 235.462 373.86V368.26C240.315 368.447 246.195 368.633 253.102 368.82C260.195 369.007 267.102 369.1 273.822 369.1C282.035 369.1 289.688 369.007 296.782 368.82C304.062 368.633 309.848 368.447 314.142 368.26V373.86C307.982 374.047 303.222 374.793 299.862 376.1C296.688 377.22 294.915 379.46 294.542 382.82C294.168 385.993 295.195 390.847 297.622 397.38L349.142 529.82L343.822 536.26L385.822 424.26C390.488 411.753 392.822 401.86 392.822 394.58C392.822 387.3 390.768 382.073 386.662 378.9C382.555 375.727 376.675 374.047 369.022 373.86V368.26C375.182 368.447 380.968 368.633 386.382 368.82C391.982 369.007 397.488 369.1 402.902 369.1C407.382 369.1 411.302 369.007 414.662 368.82C418.208 368.633 421.382 368.447 424.182 368.26Z" fill="#6200B3"/>
<rect x="130" y="340.5" width="400" height="8" fill="#8D64AA"/>
</svg>
